<svg width="74" height="75" viewBox="0 0 74 75" fill="none" xmlns="http://www.w3.org/2000/svg">
<path d="M73.3409 65.3339V65.3879C73.2843 70.2637 69.3733 74.5908 64.1115 74.6225C64.1052 74.6225 19.0854 74.6225 19.0854 74.6225C16.0593 74.6225 13.3387 72.773 12.2019 69.9497L2.3333 45.3991C0.850166 41.7097 3.54562 37.6808 7.49749 37.6808H10.3724L15.4516 50.3098C16.8718 53.8406 20.2757 56.1501 24.0544 56.1501H64.1776C69.2222 56.1501 73.3158 60.2551 73.3441 65.3308L73.3409 65.3339Z" fill="url(#paint0_linear_214_378)"/>
<path d="M65.8466 37.6808H62.9717L57.8925 25.0518C56.4723 21.521 53.0684 19.2116 49.2897 19.2116H9.16644C4.12506 19.2084 0.0283401 15.1034 0 10.0277V9.97378C0.0598291 5.09792 3.96761 0.774047 9.22942 0.739151C9.23572 0.739151 54.2555 0.739151 54.2555 0.739151C57.2816 0.739151 60.0022 2.58861 61.139 5.41198L71.0108 29.9657C72.4939 33.6552 69.7985 37.684 65.8466 37.684V37.6808Z" fill="url(#paint1_linear_214_378)"/>
<path d="M72.6545 61.7619L70.3999 56.1532L62.9717 37.6808L57.8925 25.0518C56.4723 21.521 53.0684 19.2116 49.2897 19.2116H9.16644C4.14395 19.2084 0.0598291 15.1351 0 10.0848C0 11.2459 0.220423 12.4323 0.689609 13.6029L2.94422 19.2116L10.3725 37.684L15.4516 50.313C16.8718 53.8438 20.2758 56.1532 24.0544 56.1532H64.1777C69.2191 56.1532 73.3158 60.2582 73.3441 65.3339C73.3504 64.157 73.1331 62.9483 72.6545 61.7619Z" fill="url(#paint2_linear_214_378)"/>
<path d="M62.9717 37.6808H10.3693L2.94422 19.2084L0.689609 13.5997C0.220423 12.4291 0 11.2427 0 10.0816C0.0598291 15.132 4.14395 19.2052 9.16644 19.2052H49.2897C53.0715 19.2052 56.4723 21.5147 57.8925 25.0455L62.9717 37.6745V37.6808Z" fill="url(#paint3_linear_214_378)"/>
<defs>
<linearGradient id="paint0_linear_214_378" x1="12.2271" y1="70.14" x2="61.3511" y2="41.9869" gradientUnits="userSpaceOnUse">
<stop stop-color="#02E9FF"/>
<stop offset="1" stop-color="#0000FF"/>
</linearGradient>
<linearGradient id="paint1_linear_214_378" x1="12.1736" y1="33.69" x2="61.2945" y2="5.54008" gradientUnits="userSpaceOnUse">
<stop stop-color="#FF36A3"/>
<stop offset="1" stop-color="#FFC34A"/>
</linearGradient>
<linearGradient id="paint2_linear_214_378" x1="15.2596" y1="50.1639" x2="58.2648" y2="25.5182" gradientUnits="userSpaceOnUse">
<stop stop-color="#612BCF"/>
<stop offset="1" stop-color="#FE66ED"/>
</linearGradient>
<linearGradient id="paint3_linear_214_378" x1="9.7175" y1="36.5451" x2="51.0192" y2="12.875" gradientUnits="userSpaceOnUse">
<stop offset="0.3" stop-color="#FE66ED" stop-opacity="0"/>
<stop offset="1" stop-color="#FE66ED"/>
</linearGradient>
</defs>
</svg>
