<svg width="274" height="76" viewBox="0 0 274 76" fill="none" xmlns="http://www.w3.org/2000/svg">
<path d="M105.419 34.0045V8.46722H95V1.44116H123.142V8.46407H112.77V34.0013H105.419V34.0045Z" fill="#0000FF"/>
<path d="M145.239 23.5852H128.027C128.494 26.9343 130.354 28.7034 133.842 28.7034C136.68 28.7034 138.68 27.3064 139.424 24.9349L145.006 26.6568C143.192 32.6579 138.866 34.4239 133.609 34.4239C126.352 34.4239 121.095 30.1446 121.095 22.1914C121.095 14.2382 126.538 9.44482 133.747 9.44482C140.956 9.44482 145.378 14.049 145.378 21.4913C145.378 22.2355 145.33 22.841 145.239 23.5852ZM128.446 18.5617H138.446C137.979 16.3763 136.352 14.9793 133.656 14.9793C131.329 14.9793 129.329 16.1429 128.446 18.5617Z" fill="#0000FF"/>
<path d="M156.264 34.0045C155.333 34.0045 154.45 33.6797 153.798 32.9354L149.657 28.7476C149.007 28.0033 148.679 27.1645 148.679 26.19V0H155.564V27.3978H160.076V34.0045H156.261H156.264Z" fill="#0000FF"/>
<path d="M95.7444 68.6018L100.582 67.9049C100.907 70.1849 102.023 71.8121 105.744 71.8121C108.813 71.8121 110.348 70.8345 110.348 68.9267C110.348 67.0188 109.185 66.3691 105.697 65.7164L102.767 65.1582C98.5353 64.3667 96.3026 61.8091 96.3026 58.274C96.3026 53.8086 99.6989 51.2953 105.233 51.2953C110.768 51.2953 113.931 53.6226 114.211 58.4128L109.374 59.0624C109.188 56.5522 107.98 55.48 105.003 55.48C102.446 55.48 101.096 56.363 101.096 58.1321C101.096 59.6679 102.398 60.5982 104.817 61.0176L108.075 61.6704C112.726 62.6007 115.192 64.4613 115.192 68.6018C115.192 73.534 111.518 75.9969 105.517 75.9969C99.9354 75.9969 96.3057 73.6254 95.7475 68.6018H95.7444Z" fill="black"/>
<path d="M137.61 51.6705H142.353V75.6279H137.61V71.3012C136.213 74.3255 133.423 76 129.471 76C122.54 76 118.399 70.8818 118.399 63.6255C118.399 56.3693 122.587 51.2984 129.515 51.2984C133.47 51.2984 136.213 52.9729 137.61 55.9499V51.6705ZM137.702 63.6255C137.702 58.788 134.911 55.7638 130.398 55.7638C125.886 55.7638 123.189 58.9268 123.189 63.6255C123.189 68.5577 126.028 71.5346 130.398 71.5346C135.002 71.5346 137.702 68.4189 137.702 63.6255Z" fill="black"/>
<path d="M149.982 75.6247V55.8552H145.888V51.6673H149.982V47.4794C149.982 46.7352 150.262 46.0824 150.821 45.4801L153.892 42.6419C154.45 42.1311 155.1 41.8977 155.8 41.8977H161.104V46.3158H154.731V51.6642H161.057V55.8521H154.731V75.6215H149.985L149.982 75.6247Z" fill="black"/>
<path d="M160.682 75.6247V69.9042H166.358V75.6247H160.682Z" fill="black"/>
<path d="M177.43 75.5775C176.733 75.5775 175.989 75.2999 175.475 74.7859L172.545 71.8563C171.987 71.2981 171.754 70.6926 171.754 69.9484V55.8553H167.66V51.6674H172.173V44.736H176.361V51.6674H182.548V55.8553H176.361V71.0648H182.826V75.5775H177.43Z" fill="black"/>
<path d="M204.595 51.6705H209.341V75.6279H204.595V71.3012C203.198 74.3255 200.407 76 196.455 76C189.524 76 185.383 70.8818 185.383 63.6255C185.383 56.3693 189.571 51.2984 196.499 51.2984C200.454 51.2984 203.198 52.9729 204.595 55.9499V51.6705ZM204.686 63.6255C204.686 58.788 201.895 55.7638 197.382 55.7638C192.87 55.7638 190.174 58.9268 190.174 63.6255C190.174 68.5577 193.012 71.5346 197.382 71.5346C201.987 71.5346 204.686 68.4189 204.686 63.6255Z" fill="black"/>
<path d="M222.737 75.5775C222.04 75.5775 221.296 75.2999 220.782 74.7859L217.852 71.8563C217.294 71.2981 217.061 70.6926 217.061 69.9484V55.8553H212.967V51.6674H217.48V44.736H221.668V51.6674H227.855V55.8553H221.668V71.0648H228.133V75.5775H222.737Z" fill="black"/>
<path d="M249.904 51.6705H254.65V75.6279H249.904V71.3012C248.507 74.3255 245.717 76 241.765 76C234.834 76 230.693 70.8818 230.693 63.6255C230.693 56.3693 234.881 51.2984 241.809 51.2984C245.764 51.2984 248.507 52.9729 249.904 55.9499V51.6705ZM249.996 63.6255C249.996 58.788 247.205 55.7638 242.692 55.7638C238.18 55.7638 235.483 58.9268 235.483 63.6255C235.483 68.5577 238.321 71.5346 242.692 71.5346C247.296 71.5346 249.996 68.4189 249.996 63.6255Z" fill="black"/>
<path d="M273.767 51.6705V56.6468H268.882C266.65 56.6468 265.719 57.9019 265.719 59.8571V75.6247H261.021V51.6674H265.486V55.4358C266.463 53.2946 268.324 51.6674 271.392 51.6674H273.764L273.767 51.6705Z" fill="black"/>
<path d="M73.3409 66.3339V66.3878C73.2843 71.2637 69.3733 75.5907 64.1115 75.6225C64.1052 75.6225 19.0854 75.6225 19.0854 75.6225C16.0593 75.6225 13.3387 73.773 12.2019 70.9496L2.3333 46.399C0.850166 42.7096 3.54562 38.6808 7.49749 38.6808H10.3724L15.4516 51.3098C16.8718 54.8406 20.2757 57.15 24.0544 57.15H64.1776C69.2222 57.15 73.3158 61.255 73.3441 66.3307L73.3409 66.3339Z" fill="url(#paint0_linear_411_395)"/>
<path d="M65.8466 38.6808H62.9717L57.8925 26.0518C56.4723 22.521 53.0684 20.2116 49.2897 20.2116H9.16644C4.12506 20.2084 0.0283401 16.1034 0 11.0277V10.9738C0.0598291 6.09791 3.96761 1.77403 9.22942 1.73914C9.23572 1.73914 54.2555 1.73914 54.2555 1.73914C57.2816 1.73914 60.0022 3.5886 61.139 6.41196L71.0108 30.9657C72.4939 34.6551 69.7985 38.684 65.8466 38.684V38.6808Z" fill="url(#paint1_linear_411_395)"/>
<path d="M72.6545 62.7619L70.3999 57.1533L62.9717 38.6809L57.8925 26.0518C56.4723 22.5211 53.0684 20.2116 49.2897 20.2116H9.16644C4.14395 20.2084 0.0598291 16.1352 0 11.0848C0 12.2459 0.220423 13.4324 0.689609 14.6029L2.94422 20.2116L10.3725 38.684L15.4516 51.313C16.8718 54.8438 20.2758 57.1533 24.0544 57.1533H64.1777C69.2191 57.1533 73.3158 61.2583 73.3441 66.334C73.3504 65.157 73.1331 63.9484 72.6545 62.7619Z" fill="url(#paint2_linear_411_395)"/>
<path d="M62.9717 38.6809H10.3693L2.94422 20.2084L0.689609 14.5998C0.220423 13.4292 0 12.2427 0 11.0817C0.0598291 16.132 4.14395 20.2053 9.16644 20.2053H49.2897C53.0715 20.2053 56.4723 22.5147 57.8925 26.0455L62.9717 38.6745V38.6809Z" fill="url(#paint3_linear_411_395)"/>
<defs>
<linearGradient id="paint0_linear_411_395" x1="12.2271" y1="71.14" x2="61.3511" y2="42.9869" gradientUnits="userSpaceOnUse">
<stop stop-color="#02E9FF"/>
<stop offset="1" stop-color="#0000FF"/>
</linearGradient>
<linearGradient id="paint1_linear_411_395" x1="12.1736" y1="34.69" x2="61.2945" y2="6.54006" gradientUnits="userSpaceOnUse">
<stop stop-color="#FF36A3"/>
<stop offset="1" stop-color="#FFC34A"/>
</linearGradient>
<linearGradient id="paint2_linear_411_395" x1="15.2596" y1="51.1639" x2="58.2648" y2="26.5182" gradientUnits="userSpaceOnUse">
<stop stop-color="#612BCF"/>
<stop offset="1" stop-color="#FE66ED"/>
</linearGradient>
<linearGradient id="paint3_linear_411_395" x1="9.7175" y1="37.5452" x2="51.0192" y2="13.8751" gradientUnits="userSpaceOnUse">
<stop offset="0.3" stop-color="#FE66ED" stop-opacity="0"/>
<stop offset="1" stop-color="#FE66ED"/>
</linearGradient>
</defs>
</svg>
